<svg xmlns="http://www.w3.org/2000/svg" viewBox="0 0 128 128" width="128" height="128">
  <rect width="128" height="128" rx="24" fill="#1a1a2e"/>
  <g transform="translate(12, 28)">
    <rect x="0" y="0" width="46" height="32" rx="4" fill="#16213e" stroke="#0f3460" stroke-width="1.5"/>
    <rect x="50" y="0" width="46" height="32" rx="4" fill="#16213e" stroke="#0f3460" stroke-width="1.5"/>
    <text x="8" y="20" font-family="monospace" font-size="8" fill="#e94560" font-weight="bold">W</text>
    <text x="4" y="30" font-family="monospace" font-size="7" fill="#e94560" font-weight="bold">A</text>
    <text x="14" y="30" font-family="monospace" font-size="7" fill="#e94560" font-weight="bold">S</text>
    <text x="24" y="30" font-family="monospace" font-size="7" fill="#e94560" font-weight="bold">D</text>
    <text x="56" y="20" font-family="monospace" font-size="8" fill="#e94560" font-weight="bold">↑</text>
    <text x="52" y="30" font-family="monospace" font-size="7" fill="#e94560" font-weight="bold">←</text>
    <text x="64" y="30" font-family="monospace" font-size="7" fill="#e94560" font-weight="bold">↓</text>
    <text x="76" y="30" font-family="monospace" font-size="7" fill="#e94560" font-weight="bold">→</text>
  </g>
  <g transform="translate(12, 68)">
    <rect x="0" y="0" width="104" height="36" rx="10" fill="#e94560" opacity="0.15"/>
    <rect x="8" y="5" width="36" height="26" rx="6" fill="#e94560" opacity="0.0" stroke="#e94560" stroke-width="1.2"/>
    <circle cx="10" cy="8" r="2" fill="#533483"/>
    <circle cx="22" cy="8" r="2" fill="#533483"/>
    <circle cx="34" cy="8" r="2" fill="#533483"/>
    <circle cx="46" cy="18" r="8" fill="none" stroke="#e94560" stroke-width="1.2"/>
    <circle cx="58" cy="18" r="8" fill="none" stroke="#e94560" stroke-width="1.2"/>
    <rect x="70" y="10" width="6" height="16" rx="3" fill="#533483"/>
    <rect x="80" y="10" width="6" height="16" rx="3" fill="#533483"/>
    <circle cx="52" cy="18" r="2.5" fill="#e94560"/>
  </g>
  <g transform="translate(12, 12)">
    <text x="0" y="8" font-family="sans-serif" font-size="6" fill="#533483">KbdSplit</text>
  </g>
</svg>
